# Blender 4.0.2
# www.blender.org
mtllib reduced_nobolt3.mtl
g IfcBeam/Träger.248_12/12229
v 4.860000 4.860000 3.860000
v 4.860001 -0.060000 3.860000
v 4.740001 -0.060000 3.860000
v 4.740000 4.860000 3.860000
v 4.740001 -0.060000 3.849000
v 4.740000 4.860000 3.849000
v 4.794133 -0.060000 3.844482
v 4.794132 4.860000 3.844482
v 4.789958 -0.060000 3.752188
v 4.789957 4.860000 3.752188
v 4.740001 -0.060000 3.751000
v 4.740000 4.860000 3.751000
v 4.740001 -0.060000 3.740000
v 4.740000 4.860000 3.740000
v 4.860001 -0.060000 3.740000
v 4.860000 4.860000 3.740000
v 4.860001 -0.060000 3.751000
v 4.860000 4.860000 3.751000
v 4.810044 -0.060000 3.752188
v 4.810043 4.860000 3.752188
v 4.810044 -0.060000 3.847812
v 4.810043 4.860000 3.847812
v 4.860001 -0.060000 3.849000
v 4.860000 4.860000 3.849000
v 4.860001 -0.060000 3.860000
v 4.740001 -0.060000 3.860000
v 4.740001 -0.060000 3.849000
v 4.794133 -0.060000 3.844482
v 4.789958 -0.060000 3.752188
v 4.740001 -0.060000 3.751000
v 4.740001 -0.060000 3.740000
v 4.860001 -0.060000 3.740000
v 4.860001 -0.060000 3.751000
v 4.810044 -0.060000 3.752188
v 4.810044 -0.060000 3.847812
v 4.860001 -0.060000 3.849000
vn -0.0832 -0.0000 -0.9965
vn 1.0000 -0.0000 -0.0000
vn -0.0238 -0.0000 0.9997
vn 0.0238 -0.0000 -0.9997
vn -0.9990 -0.0000 0.0452
vn -1.0000 -0.0000 -0.0000
vn -0.0000 1.0000 -0.0000
vn -0.0000 -0.0000 1.0000
vn 0.0238 -0.0000 0.9997
vn -0.0000 -1.0000 -0.0000
vn -0.0000 -0.0000 -1.0000
s 0
usemtl STEEL/S235JR.008
f 6//1 8//1 7//1 5//1
f 17//2 15//2 16//2 18//2
f 11//3 9//3 10//3 12//3
f 21//4 22//4 24//4 23//4
f 10//5 9//5 7//5 8//5
f 5//6 3//6 4//6 6//6
f 2//2 23//2 24//2 1//2
f 8//7 6//7 4//7 1//7 24//7 22//7 20//7 18//7 16//7 14//7 12//7 10//7
f 3//8 2//8 1//8 4//8
f 13//6 11//6 12//6 14//6
f 20//2 22//2 21//2 19//2
f 18//9 20//9 19//9 17//9
f 29//10 30//10 31//10 32//10 33//10 34//10 35//10 36//10 25//10 26//10 27//10 28//10
f 15//11 13//11 14//11 16//11
